<svg xmlns="http://www.w3.org/2000/svg" viewBox="0 0 260 260" fill="none">
	<defs>
		<clipPath id="voltL">
			<g transform="translate(130 130) scale(0.84) translate(-130 -130)">
				<path d="M-12 -12L152.37 -12L152.37 48.95L84.07 136.20A8.01 8.01 0 0 0 87.13 142.87L116.90 144.22A6.29 6.29 0 0 1 122.07 150.70L111.46 209.45L111.46 272L-12 272Z"/>
			</g>
		</clipPath>
		<mask id="voltCut">
			<rect width="260" height="260" fill="#ffffff"/>
			<g transform="translate(130 130) scale(0.84) translate(-130 -130)">
				<path d="M152.37 48.95L84.07 136.20A8.01 8.01 0 0 0 87.13 142.87L116.90 144.22A6.29 6.29 0 0 1 122.07 150.70L111.46 209.45L178.37 123.09A8.01 8.01 0 0 0 175.26 116.65L145.08 116.26A6.29 6.29 0 0 1 140.03 110.01Z" fill="#000000"/>
			</g>
		</mask>
	</defs>
	<g mask="url(#voltCut)">
		<circle cx="130" cy="130" r="86" fill="#161616"/>
		<circle cx="130" cy="130" r="86" fill="#161616" fill-opacity="0.82" clip-path="url(#voltL)"/>
	</g>
</svg>
